<svg fill="#0D668D" enable-background="new 0 0 24 24" viewBox="0 0 24 24" xmlns="http://www.w3.org/2000/svg"><path d="m12 2c-5.5 0-10 4.5-10 10s4.5 10 10 10c1.8 0 3.5-.5 5-1.3.5-.3.6-.9.4-1.4-.3-.5-.9-.6-1.4-.4-3.8 2.2-8.7.9-10.9-2.9-2.2-3.8-.9-8.7 2.9-10.9s8.7-.9 10.9 2.9c.7 1.2 1.1 2.6 1.1 4v.8c0 1-.8 1.8-1.8 1.8s-1.8-.8-1.8-1.8v-4.3c0-.6-.4-1-1-1-.5 0-.9.3-1 .8-2-1.4-4.9-.9-6.3 1.1s-.9 4.9 1.1 6.3c1.9 1.3 4.4 1 5.9-.7 1.3 1.6 3.6 1.9 5.2.7.9-.7 1.5-1.8 1.5-3v-.7c.2-5.5-4.3-10-9.8-10zm0 12.5c-1.4 0-2.5-1.1-2.5-2.5s1.1-2.5 2.5-2.5 2.5 1.1 2.5 2.5-1.1 2.5-2.5 2.5z"/></svg>